STARTFONT 2.1
FONT -FontForge-Zen Loop-Book-R-Normal--18-180-72-72-P-57-ISO10646-1
SIZE 18 72 72
FONTBOUNDINGBOX 15 21 -2 -5
COMMENT "Generated by fontforge, http://fontforge.sourceforge.net"
COMMENT "Copyright 2021 The Zen-Loop Project Authors (https://github.com/googlefonts/zen-loop)"
STARTPROPERTIES 39
FOUNDRY "FontForge"
FAMILY_NAME "Zen Loop"
WEIGHT_NAME "Book"
SLANT "R"
SETWIDTH_NAME "Normal"
ADD_STYLE_NAME ""
PIXEL_SIZE 18
POINT_SIZE 180
RESOLUTION_X 72
RESOLUTION_Y 72
SPACING "P"
AVERAGE_WIDTH 57
CHARSET_REGISTRY "ISO10646"
CHARSET_ENCODING "1"
FONTNAME_REGISTRY ""
CHARSET_COLLECTIONS "ISO10646-1"
FONT_NAME "ZenLoop-Regular"
FACE_NAME "Zen Loop Regular"
COPYRIGHT "Copyright 2021 The Zen-Loop Project Authors (https://github.com/googlefonts/zen-loop)"
FONT_VERSION "1.000; ttfautohint (v1.8.3)"
FONT_ASCENT 14
FONT_DESCENT 4
UNDERLINE_POSITION -3
UNDERLINE_THICKNESS 1
X_HEIGHT 8
CAP_HEIGHT 12
RAW_ASCENT 800
RAW_DESCENT 200
NORM_SPACE 4
RELATIVE_WEIGHT 40
RELATIVE_SETWIDTH 50
SUPERSCRIPT_X 0
SUPERSCRIPT_Y 6
SUPERSCRIPT_SIZE 10
SUBSCRIPT_X 0
SUBSCRIPT_Y 1
SUBSCRIPT_SIZE 10
AVG_LOWERCASE_WIDTH 53
AVG_UPPERCASE_WIDTH 69
ENDPROPERTIES
CHARS 248
STARTCHAR CR
ENCODING 13
SWIDTH 600 0
DWIDTH 11 0
BBX 1 1 0 0
BITMAP
00
ENDCHAR
STARTCHAR space
ENCODING 32
SWIDTH 240 0
DWIDTH 4 0
BBX 1 1 0 0
BITMAP
00
ENDCHAR
STARTCHAR exclam
ENCODING 33
SWIDTH 141 0
DWIDTH 3 0
BBX 1 13 1 0
BITMAP
80
80
80
80
80
80
80
80
80
80
00
80
80
ENDCHAR
STARTCHAR quotedbl
ENCODING 34
SWIDTH 195 0
DWIDTH 4 0
BBX 2 4 1 9
BITMAP
C0
C0
C0
C0
ENDCHAR
STARTCHAR numbersign
ENCODING 35
SWIDTH 454 0
DWIDTH 8 0
BBX 8 13 0 0
BITMAP
12
12
12
12
6D
24
24
24
FE
44
48
48
48
ENDCHAR
STARTCHAR dollar
ENCODING 36
SWIDTH 356 0
DWIDTH 6 0
BBX 6 17 0 -2
BITMAP
10
10
28
54
90
50
50
20
10
18
14
14
94
94
78
10
10
ENDCHAR
STARTCHAR percent
ENCODING 37
SWIDTH 470 0
DWIDTH 8 0
BBX 7 13 1 0
BITMAP
E0
A4
A4
A8
A8
50
10
2C
32
32
52
52
8C
ENDCHAR
STARTCHAR ampersand
ENCODING 38
SWIDTH 520 0
DWIDTH 9 0
BBX 8 13 1 0
BITMAP
38
28
28
28
30
20
62
95
94
88
88
94
F3
ENDCHAR
STARTCHAR quotesingle
ENCODING 39
SWIDTH 121 0
DWIDTH 2 0
BBX 1 4 1 9
BITMAP
80
80
80
80
ENDCHAR
STARTCHAR parenleft
ENCODING 40
SWIDTH 233 0
DWIDTH 4 0
BBX 3 15 1 -1
BITMAP
20
40
40
40
80
80
80
80
80
80
80
80
40
40
20
ENDCHAR
STARTCHAR parenright
ENCODING 41
SWIDTH 233 0
DWIDTH 4 0
BBX 2 15 1 -2
BITMAP
80
80
80
40
40
40
40
40
40
40
40
40
80
80
80
ENDCHAR
STARTCHAR asterisk
ENCODING 42
SWIDTH 313 0
DWIDTH 6 0
BBX 4 4 1 9
BITMAP
40
D0
60
A0
ENDCHAR
STARTCHAR plus
ENCODING 43
SWIDTH 577 0
DWIDTH 10 0
BBX 8 9 1 0
BITMAP
08
08
08
08
FF
08
08
08
08
ENDCHAR
STARTCHAR comma
ENCODING 44
SWIDTH 145 0
DWIDTH 3 0
BBX 2 3 0 -2
BITMAP
40
40
80
ENDCHAR
STARTCHAR hyphen
ENCODING 45
SWIDTH 286 0
DWIDTH 5 0
BBX 3 1 1 5
BITMAP
E0
ENDCHAR
STARTCHAR period
ENCODING 46
SWIDTH 181 0
DWIDTH 3 0
BBX 1 2 1 0
BITMAP
80
80
ENDCHAR
STARTCHAR slash
ENCODING 47
SWIDTH 292 0
DWIDTH 5 0
BBX 5 16 0 -1
BITMAP
08
08
08
08
10
10
10
20
20
20
40
40
40
80
80
80
ENDCHAR
STARTCHAR zero
ENCODING 48
SWIDTH 378 0
DWIDTH 7 0
BBX 5 13 1 0
BITMAP
70
88
88
88
88
88
88
88
88
88
88
88
70
ENDCHAR
STARTCHAR one
ENCODING 49
SWIDTH 303 0
DWIDTH 5 0
BBX 5 13 0 0
BITMAP
60
20
20
20
20
20
20
20
20
20
20
20
F8
ENDCHAR
STARTCHAR two
ENCODING 50
SWIDTH 343 0
DWIDTH 6 0
BBX 6 13 0 0
BITMAP
38
44
04
04
04
08
08
10
20
40
40
80
FC
ENDCHAR
STARTCHAR three
ENCODING 51
SWIDTH 377 0
DWIDTH 7 0
BBX 6 13 0 0
BITMAP
38
44
04
04
04
38
24
04
04
04
04
84
78
ENDCHAR
STARTCHAR four
ENCODING 52
SWIDTH 389 0
DWIDTH 7 0
BBX 5 13 1 0
BITMAP
10
10
20
20
50
50
90
90
90
F8
10
10
10
ENDCHAR
STARTCHAR five
ENCODING 53
SWIDTH 372 0
DWIDTH 7 0
BBX 6 14 0 0
BITMAP
04
38
20
20
20
20
38
44
44
04
04
04
84
78
ENDCHAR
STARTCHAR six
ENCODING 54
SWIDTH 360 0
DWIDTH 6 0
BBX 5 13 1 0
BITMAP
20
20
40
80
80
F0
88
88
88
88
88
88
70
ENDCHAR
STARTCHAR seven
ENCODING 55
SWIDTH 321 0
DWIDTH 6 0
BBX 5 13 0 0
BITMAP
F8
08
08
10
10
10
20
20
20
20
40
40
40
ENDCHAR
STARTCHAR eight
ENCODING 56
SWIDTH 377 0
DWIDTH 7 0
BBX 5 13 1 0
BITMAP
70
88
88
88
88
50
60
90
88
88
88
88
70
ENDCHAR
STARTCHAR nine
ENCODING 57
SWIDTH 360 0
DWIDTH 6 0
BBX 5 13 1 -1
BITMAP
70
88
88
88
88
88
98
68
10
10
10
20
40
ENDCHAR
STARTCHAR colon
ENCODING 58
SWIDTH 181 0
DWIDTH 3 0
BBX 1 9 1 0
BITMAP
80
80
00
00
00
00
00
80
80
ENDCHAR
STARTCHAR semicolon
ENCODING 59
SWIDTH 165 0
DWIDTH 3 0
BBX 2 11 0 -2
BITMAP
40
40
00
00
00
00
00
00
40
40
80
ENDCHAR
STARTCHAR less
ENCODING 60
SWIDTH 482 0
DWIDTH 9 0
BBX 7 7 1 1
BITMAP
06
18
60
80
60
18
06
ENDCHAR
STARTCHAR equal
ENCODING 61
SWIDTH 577 0
DWIDTH 10 0
BBX 8 4 1 3
BITMAP
FF
00
00
FF
ENDCHAR
STARTCHAR greater
ENCODING 62
SWIDTH 482 0
DWIDTH 9 0
BBX 7 7 1 1
BITMAP
C0
30
08
06
18
60
80
ENDCHAR
STARTCHAR question
ENCODING 63
SWIDTH 300 0
DWIDTH 5 0
BBX 3 13 1 0
BITMAP
E0
A0
20
20
20
40
40
80
40
00
00
40
40
ENDCHAR
STARTCHAR at
ENCODING 64
SWIDTH 748 0
DWIDTH 13 0
BBX 12 13 1 0
BITMAP
1F80
2240
4520
8910
8810
9210
9610
9610
9420
9440
4B80
2060
1F80
ENDCHAR
STARTCHAR A
ENCODING 65
SWIDTH 414 0
DWIDTH 7 0
BBX 7 13 0 0
BITMAP
10
10
18
28
28
24
24
3C
44
42
42
82
82
ENDCHAR
STARTCHAR B
ENCODING 66
SWIDTH 375 0
DWIDTH 7 0
BBX 5 13 1 0
BITMAP
F0
88
88
88
88
E8
B0
88
88
88
88
88
F0
ENDCHAR
STARTCHAR C
ENCODING 67
SWIDTH 366 0
DWIDTH 7 0
BBX 5 13 1 0
BITMAP
78
80
80
80
80
80
80
80
80
80
80
80
78
ENDCHAR
STARTCHAR D
ENCODING 68
SWIDTH 396 0
DWIDTH 7 0
BBX 5 13 1 0
BITMAP
F0
88
88
88
88
88
88
88
88
88
88
88
F0
ENDCHAR
STARTCHAR E
ENCODING 69
SWIDTH 309 0
DWIDTH 6 0
BBX 4 13 1 0
BITMAP
F0
80
80
80
80
F0
80
80
80
80
80
80
F0
ENDCHAR
STARTCHAR F
ENCODING 70
SWIDTH 299 0
DWIDTH 5 0
BBX 4 13 1 0
BITMAP
F0
80
80
80
80
F0
80
80
80
80
80
80
80
ENDCHAR
STARTCHAR G
ENCODING 71
SWIDTH 382 0
DWIDTH 7 0
BBX 5 13 1 0
BITMAP
78
80
80
80
80
80
80
98
88
88
88
88
78
ENDCHAR
STARTCHAR H
ENCODING 72
SWIDTH 425 0
DWIDTH 8 0
BBX 6 13 1 0
BITMAP
84
84
84
84
84
84
FC
84
84
84
84
84
84
ENDCHAR
STARTCHAR I
ENCODING 73
SWIDTH 141 0
DWIDTH 3 0
BBX 1 13 1 0
BITMAP
80
80
80
80
80
80
80
80
80
80
80
80
80
ENDCHAR
STARTCHAR J
ENCODING 74
SWIDTH 142 0
DWIDTH 3 0
BBX 3 17 -2 -4
BITMAP
20
20
20
20
20
20
20
20
20
20
20
20
20
20
20
20
C0
ENDCHAR
STARTCHAR K
ENCODING 75
SWIDTH 401 0
DWIDTH 7 0
BBX 7 13 0 0
BITMAP
44
44
48
48
48
70
C8
44
44
44
44
42
42
ENDCHAR
STARTCHAR L
ENCODING 76
SWIDTH 347 0
DWIDTH 6 0
BBX 5 13 1 0
BITMAP
80
80
80
80
80
80
80
80
80
80
80
80
F8
ENDCHAR
STARTCHAR M
ENCODING 77
SWIDTH 534 0
DWIDTH 10 0
BBX 8 13 1 0
BITMAP
42
A6
9A
92
99
99
91
91
91
91
81
81
81
ENDCHAR
STARTCHAR N
ENCODING 78
SWIDTH 422 0
DWIDTH 8 0
BBX 6 13 1 0
BITMAP
84
84
84
C4
C4
A4
A4
94
94
94
8C
84
84
ENDCHAR
STARTCHAR O
ENCODING 79
SWIDTH 446 0
DWIDTH 8 0
BBX 6 13 1 0
BITMAP
78
84
84
84
84
84
84
84
84
84
84
84
78
ENDCHAR
STARTCHAR P
ENCODING 80
SWIDTH 341 0
DWIDTH 6 0
BBX 5 13 1 0
BITMAP
F0
88
88
88
88
90
E0
80
80
80
80
80
80
ENDCHAR
STARTCHAR Q
ENCODING 81
SWIDTH 446 0
DWIDTH 8 0
BBX 6 18 1 -5
BITMAP
78
84
84
84
84
84
84
84
84
CC
B4
94
68
30
10
10
30
10
ENDCHAR
STARTCHAR R
ENCODING 82
SWIDTH 380 0
DWIDTH 7 0
BBX 6 13 0 0
BITMAP
78
44
44
44
44
E8
78
48
44
44
44
44
44
ENDCHAR
STARTCHAR S
ENCODING 83
SWIDTH 356 0
DWIDTH 6 0
BBX 6 13 0 0
BITMAP
38
44
80
40
40
20
10
08
04
04
84
84
78
ENDCHAR
STARTCHAR T
ENCODING 84
SWIDTH 377 0
DWIDTH 7 0
BBX 7 13 0 0
BITMAP
FE
10
10
10
10
10
10
10
10
10
10
10
10
ENDCHAR
STARTCHAR U
ENCODING 85
SWIDTH 412 0
DWIDTH 7 0
BBX 6 13 1 0
BITMAP
84
84
84
84
84
84
84
84
84
84
84
84
78
ENDCHAR
STARTCHAR V
ENCODING 86
SWIDTH 384 0
DWIDTH 7 0
BBX 7 13 0 0
BITMAP
82
82
84
44
44
44
48
28
28
28
28
10
10
ENDCHAR
STARTCHAR W
ENCODING 87
SWIDTH 534 0
DWIDTH 10 0
BBX 8 13 1 0
BITMAP
81
81
81
81
91
99
99
91
91
9A
AA
C6
82
ENDCHAR
STARTCHAR X
ENCODING 88
SWIDTH 318 0
DWIDTH 6 0
BBX 6 13 0 0
BITMAP
88
48
48
50
30
20
20
30
50
48
48
88
84
ENDCHAR
STARTCHAR Y
ENCODING 89
SWIDTH 370 0
DWIDTH 7 0
BBX 7 13 0 0
BITMAP
82
84
44
48
28
28
10
10
10
10
10
10
10
ENDCHAR
STARTCHAR Z
ENCODING 90
SWIDTH 309 0
DWIDTH 6 0
BBX 5 13 0 0
BITMAP
F8
08
08
10
10
10
20
20
40
40
40
80
F8
ENDCHAR
STARTCHAR bracketleft
ENCODING 91
SWIDTH 193 0
DWIDTH 3 0
BBX 2 16 1 -1
BITMAP
C0
80
80
80
80
80
80
80
80
80
80
80
80
80
80
C0
ENDCHAR
STARTCHAR backslash
ENCODING 92
SWIDTH 292 0
DWIDTH 5 0
BBX 5 16 0 -1
BITMAP
80
80
80
40
40
40
20
20
20
10
10
10
10
08
08
08
ENDCHAR
STARTCHAR bracketright
ENCODING 93
SWIDTH 193 0
DWIDTH 3 0
BBX 2 16 0 -1
BITMAP
C0
40
40
40
40
40
40
40
40
40
40
40
40
40
40
C0
ENDCHAR
STARTCHAR asciicircum
ENCODING 94
SWIDTH 416 0
DWIDTH 7 0
BBX 7 7 0 6
BITMAP
10
18
28
24
44
42
82
ENDCHAR
STARTCHAR underscore
ENCODING 95
SWIDTH 556 0
DWIDTH 10 0
BBX 8 1 1 -1
BITMAP
FF
ENDCHAR
STARTCHAR grave
ENCODING 96
SWIDTH 201 0
DWIDTH 4 0
BBX 2 2 1 10
BITMAP
80
40
ENDCHAR
STARTCHAR a
ENCODING 97
SWIDTH 315 0
DWIDTH 6 0
BBX 4 9 1 0
BITMAP
E0
90
10
10
70
90
90
90
F0
ENDCHAR
STARTCHAR b
ENCODING 98
SWIDTH 298 0
DWIDTH 5 0
BBX 4 13 1 0
BITMAP
80
80
80
80
E0
90
90
90
90
90
90
90
E0
ENDCHAR
STARTCHAR c
ENCODING 99
SWIDTH 275 0
DWIDTH 5 0
BBX 3 9 1 0
BITMAP
60
A0
80
80
80
80
80
A0
60
ENDCHAR
STARTCHAR d
ENCODING 100
SWIDTH 298 0
DWIDTH 5 0
BBX 3 13 1 0
BITMAP
20
20
20
20
E0
A0
A0
A0
A0
A0
A0
A0
E0
ENDCHAR
STARTCHAR e
ENCODING 101
SWIDTH 285 0
DWIDTH 5 0
BBX 4 9 1 0
BITMAP
60
90
90
F0
80
80
80
90
60
ENDCHAR
STARTCHAR f
ENCODING 102
SWIDTH 178 0
DWIDTH 3 0
BBX 4 13 0 0
BITMAP
30
40
40
40
E0
40
40
40
40
40
40
40
40
ENDCHAR
STARTCHAR g
ENCODING 103
SWIDTH 302 0
DWIDTH 5 0
BBX 6 14 0 -4
BITMAP
08
70
48
48
48
48
48
30
40
70
88
84
84
78
ENDCHAR
STARTCHAR h
ENCODING 104
SWIDTH 307 0
DWIDTH 6 0
BBX 4 13 1 0
BITMAP
80
80
80
80
E0
90
90
90
90
90
90
90
90
ENDCHAR
STARTCHAR i
ENCODING 105
SWIDTH 141 0
DWIDTH 3 0
BBX 1 12 1 0
BITMAP
80
80
00
80
80
80
80
80
80
80
80
80
ENDCHAR
STARTCHAR j
ENCODING 106
SWIDTH 141 0
DWIDTH 3 0
BBX 2 16 -1 -4
BITMAP
40
40
00
40
40
40
40
40
40
40
40
40
40
40
40
C0
ENDCHAR
STARTCHAR k
ENCODING 107
SWIDTH 287 0
DWIDTH 5 0
BBX 4 13 1 0
BITMAP
80
80
80
80
90
A0
A0
C0
A0
A0
A0
90
90
ENDCHAR
STARTCHAR l
ENCODING 108
SWIDTH 141 0
DWIDTH 3 0
BBX 1 13 1 0
BITMAP
80
80
80
80
80
80
80
80
80
80
80
80
80
ENDCHAR
STARTCHAR m
ENCODING 109
SWIDTH 407 0
DWIDTH 7 0
BBX 5 9 1 0
BITMAP
88
F8
A8
A8
A8
A8
88
88
88
ENDCHAR
STARTCHAR n
ENCODING 110
SWIDTH 307 0
DWIDTH 6 0
BBX 4 9 1 0
BITMAP
E0
90
90
90
90
90
90
90
90
ENDCHAR
STARTCHAR o
ENCODING 111
SWIDTH 309 0
DWIDTH 6 0
BBX 4 9 1 0
BITMAP
60
90
90
90
90
90
90
90
60
ENDCHAR
STARTCHAR p
ENCODING 112
SWIDTH 299 0
DWIDTH 5 0
BBX 5 14 0 -4
BITMAP
40
70
C8
48
48
48
48
48
48
70
40
40
40
40
ENDCHAR
STARTCHAR q
ENCODING 113
SWIDTH 286 0
DWIDTH 5 0
BBX 4 13 1 -4
BITMAP
E0
90
90
90
90
90
90
90
E0
10
10
10
10
ENDCHAR
STARTCHAR r
ENCODING 114
SWIDTH 277 0
DWIDTH 5 0
BBX 4 9 1 0
BITMAP
E0
90
80
80
80
80
80
80
80
ENDCHAR
STARTCHAR s
ENCODING 115
SWIDTH 257 0
DWIDTH 5 0
BBX 4 9 0 0
BITMAP
70
80
80
40
20
10
10
90
70
ENDCHAR
STARTCHAR t
ENCODING 116
SWIDTH 207 0
DWIDTH 4 0
BBX 3 12 0 0
BITMAP
40
40
40
E0
40
40
40
40
40
40
40
20
ENDCHAR
STARTCHAR u
ENCODING 117
SWIDTH 307 0
DWIDTH 6 0
BBX 3 9 1 0
BITMAP
A0
A0
A0
A0
A0
A0
A0
A0
E0
ENDCHAR
STARTCHAR v
ENCODING 118
SWIDTH 285 0
DWIDTH 5 0
BBX 5 9 0 0
BITMAP
88
88
48
50
50
50
20
20
20
ENDCHAR
STARTCHAR w
ENCODING 119
SWIDTH 396 0
DWIDTH 7 0
BBX 7 9 0 0
BITMAP
82
82
92
92
52
54
54
6C
44
ENDCHAR
STARTCHAR x
ENCODING 120
SWIDTH 244 0
DWIDTH 4 0
BBX 4 9 0 0
BITMAP
90
50
60
20
20
20
60
50
90
ENDCHAR
STARTCHAR y
ENCODING 121
SWIDTH 285 0
DWIDTH 5 0
BBX 5 13 0 -4
BITMAP
88
88
48
50
50
50
50
20
20
20
20
20
C0
ENDCHAR
STARTCHAR z
ENCODING 122
SWIDTH 233 0
DWIDTH 4 0
BBX 4 9 0 0
BITMAP
70
10
20
20
20
40
40
80
F0
ENDCHAR
STARTCHAR braceleft
ENCODING 123
SWIDTH 306 0
DWIDTH 6 0
BBX 6 16 0 -1
BITMAP
0C
10
10
10
10
10
10
D0
70
10
10
10
10
10
10
0C
ENDCHAR
STARTCHAR bar
ENCODING 124
SWIDTH 141 0
DWIDTH 3 0
BBX 1 16 1 -1
BITMAP
80
80
80
80
80
80
80
80
80
80
80
80
80
80
80
80
ENDCHAR
STARTCHAR braceright
ENCODING 125
SWIDTH 306 0
DWIDTH 6 0
BBX 5 16 0 -1
BITMAP
C0
20
20
20
20
20
20
38
38
20
20
20
20
20
20
C0
ENDCHAR
STARTCHAR asciitilde
ENCODING 126
SWIDTH 433 0
DWIDTH 8 0
BBX 6 2 1 4
BITMAP
64
98
ENDCHAR
STARTCHAR uni00A0
ENCODING 160
SWIDTH 240 0
DWIDTH 4 0
BBX 1 1 0 0
BITMAP
00
ENDCHAR
STARTCHAR exclamdown
ENCODING 161
SWIDTH 141 0
DWIDTH 3 0
BBX 1 13 1 -3
BITMAP
80
80
00
80
80
80
80
80
80
80
80
80
80
ENDCHAR
STARTCHAR cent
ENCODING 162
SWIDTH 275 0
DWIDTH 5 0
BBX 3 12 1 -2
BITMAP
40
40
E0
E0
C0
C0
C0
C0
E0
A0
40
40
ENDCHAR
STARTCHAR sterling
ENCODING 163
SWIDTH 331 0
DWIDTH 6 0
BBX 6 13 0 0
BITMAP
78
88
80
80
40
40
78
20
20
20
20
40
FC
ENDCHAR
STARTCHAR currency
ENCODING 164
SWIDTH 506 0
DWIDTH 9 0
BBX 7 8 1 2
BITMAP
82
BA
44
82
82
82
44
BA
ENDCHAR
STARTCHAR yen
ENCODING 165
SWIDTH 370 0
DWIDTH 7 0
BBX 7 13 0 0
BITMAP
82
84
44
48
28
28
10
10
7C
10
7C
10
10
ENDCHAR
STARTCHAR brokenbar
ENCODING 166
SWIDTH 141 0
DWIDTH 3 0
BBX 1 16 1 -1
BITMAP
80
80
80
80
80
80
80
00
00
80
80
80
80
80
80
80
ENDCHAR
STARTCHAR section
ENCODING 167
SWIDTH 303 0
DWIDTH 5 0
BBX 5 17 0 -2
BITMAP
70
88
80
80
40
20
70
48
88
48
50
30
08
08
08
88
70
ENDCHAR
STARTCHAR dieresis
ENCODING 168
SWIDTH 241 0
DWIDTH 4 0
BBX 2 2 1 10
BITMAP
C0
C0
ENDCHAR
STARTCHAR copyright
ENCODING 169
SWIDTH 772 0
DWIDTH 14 0
BBX 12 14 1 0
BITMAP
0F00
30C0
4020
8610
8810
8810
8810
8810
8810
8810
8810
4620
30C0
0F00
ENDCHAR
STARTCHAR ordfeminine
ENCODING 170
SWIDTH 231 0
DWIDTH 4 0
BBX 4 6 0 7
BITMAP
60
20
20
60
A0
F0
ENDCHAR
STARTCHAR guillemotleft
ENCODING 171
SWIDTH 403 0
DWIDTH 7 0
BBX 6 7 1 2
BITMAP
2C
50
90
A0
90
48
24
ENDCHAR
STARTCHAR logicalnot
ENCODING 172
SWIDTH 557 0
DWIDTH 10 0
BBX 8 4 1 2
BITMAP
FF
01
01
01
ENDCHAR
STARTCHAR uni00AD
ENCODING 173
SWIDTH 286 0
DWIDTH 5 0
BBX 3 1 1 5
BITMAP
E0
ENDCHAR
STARTCHAR registered
ENCODING 174
SWIDTH 772 0
DWIDTH 14 0
BBX 12 14 1 0
BITMAP
0F00
30C0
4020
8610
8910
8910
8910
8610
8910
8910
8910
4020
30C0
0F00
ENDCHAR
STARTCHAR macron
ENCODING 175
SWIDTH 266 0
DWIDTH 5 0
BBX 3 1 1 11
BITMAP
E0
ENDCHAR
STARTCHAR degree
ENCODING 176
SWIDTH 350 0
DWIDTH 6 0
BBX 4 5 1 8
BITMAP
60
90
90
90
60
ENDCHAR
STARTCHAR plusminus
ENCODING 177
SWIDTH 577 0
DWIDTH 10 0
BBX 8 9 1 0
BITMAP
08
08
08
FF
08
08
08
00
FF
ENDCHAR
STARTCHAR uni00B2
ENCODING 178
SWIDTH 207 0
DWIDTH 4 0
BBX 2 6 1 7
BITMAP
C0
40
40
80
80
C0
ENDCHAR
STARTCHAR uni00B3
ENCODING 179
SWIDTH 214 0
DWIDTH 4 0
BBX 3 6 0 7
BITMAP
60
20
40
20
20
E0
ENDCHAR
STARTCHAR acute
ENCODING 180
SWIDTH 201 0
DWIDTH 4 0
BBX 2 2 1 10
BITMAP
40
80
ENDCHAR
STARTCHAR uni00B5
ENCODING 181
SWIDTH 335 0
DWIDTH 6 0
BBX 5 13 1 -4
BITMAP
90
90
90
90
90
90
90
90
F8
80
80
80
80
ENDCHAR
STARTCHAR paragraph
ENCODING 182
SWIDTH 471 0
DWIDTH 8 0
BBX 6 13 1 0
BITMAP
7C
FC
FC
FC
FC
7C
3C
0C
0C
0C
0C
0C
0C
ENDCHAR
STARTCHAR periodcentered
ENCODING 183
SWIDTH 181 0
DWIDTH 3 0
BBX 1 2 1 5
BITMAP
80
80
ENDCHAR
STARTCHAR cedilla
ENCODING 184
SWIDTH 232 0
DWIDTH 4 0
BBX 2 3 1 -3
BITMAP
C0
40
C0
ENDCHAR
STARTCHAR uni00B9
ENCODING 185
SWIDTH 176 0
DWIDTH 3 0
BBX 3 6 0 7
BITMAP
C0
40
40
40
40
E0
ENDCHAR
STARTCHAR ordmasculine
ENCODING 186
SWIDTH 201 0
DWIDTH 4 0
BBX 3 6 0 7
BITMAP
60
A0
A0
A0
A0
60
ENDCHAR
STARTCHAR guillemotright
ENCODING 187
SWIDTH 403 0
DWIDTH 7 0
BBX 6 7 1 1
BITMAP
A0
90
48
24
28
50
A0
ENDCHAR
STARTCHAR onequarter
ENCODING 188
SWIDTH 527 0
DWIDTH 9 0
BBX 8 13 1 0
BITMAP
82
42
44
44
48
C8
10
12
14
26
2A
4F
42
ENDCHAR
STARTCHAR onehalf
ENCODING 189
SWIDTH 540 0
DWIDTH 10 0
BBX 8 13 1 0
BITMAP
82
42
44
44
48
C8
10
17
11
21
22
44
47
ENDCHAR
STARTCHAR threequarters
ENCODING 190
SWIDTH 517 0
DWIDTH 9 0
BBX 9 13 0 0
BITMAP
6100
2100
4200
2200
2400
E400
0800
0900
0A00
1300
1300
2380
2100
ENDCHAR
STARTCHAR questiondown
ENCODING 191
SWIDTH 300 0
DWIDTH 5 0
BBX 4 13 1 -3
BITMAP
20
20
00
00
20
20
20
40
80
80
80
90
E0
ENDCHAR
STARTCHAR Agrave
ENCODING 192
SWIDTH 414 0
DWIDTH 7 0
BBX 7 16 0 0
BITMAP
20
10
00
10
10
18
28
28
24
24
3C
44
42
42
82
82
ENDCHAR
STARTCHAR Aacute
ENCODING 193
SWIDTH 414 0
DWIDTH 7 0
BBX 7 16 0 0
BITMAP
08
10
00
10
10
18
28
28
24
24
3C
44
42
42
82
82
ENDCHAR
STARTCHAR Acircumflex
ENCODING 194
SWIDTH 414 0
DWIDTH 7 0
BBX 7 15 0 0
BITMAP
10
28
10
10
18
28
28
24
24
3C
44
42
42
82
82
ENDCHAR
STARTCHAR Atilde
ENCODING 195
SWIDTH 414 0
DWIDTH 7 0
BBX 7 16 0 0
BITMAP
14
28
00
10
10
18
28
28
24
24
3C
44
42
42
82
82
ENDCHAR
STARTCHAR Adieresis
ENCODING 196
SWIDTH 414 0
DWIDTH 7 0
BBX 7 16 0 0
BITMAP
28
28
00
10
10
18
28
28
24
24
3C
44
42
42
82
82
ENDCHAR
STARTCHAR Aring
ENCODING 197
SWIDTH 414 0
DWIDTH 7 0
BBX 7 16 0 0
BITMAP
10
28
10
10
10
18
28
28
24
24
3C
44
42
42
82
82
ENDCHAR
STARTCHAR AE
ENCODING 198
SWIDTH 545 0
DWIDTH 10 0
BBX 9 13 0 0
BITMAP
0780
0400
0C00
0C00
1400
1780
2400
3C00
2400
4400
4400
8400
8780
ENDCHAR
STARTCHAR Ccedilla
ENCODING 199
SWIDTH 366 0
DWIDTH 7 0
BBX 5 16 1 -3
BITMAP
78
80
80
80
80
80
80
80
80
80
80
80
48
30
10
30
ENDCHAR
STARTCHAR Egrave
ENCODING 200
SWIDTH 309 0
DWIDTH 6 0
BBX 4 16 1 0
BITMAP
40
40
00
F0
80
80
80
80
F0
80
80
80
80
80
80
F0
ENDCHAR
STARTCHAR Eacute
ENCODING 201
SWIDTH 309 0
DWIDTH 6 0
BBX 4 16 1 0
BITMAP
20
20
00
F0
80
80
80
80
F0
80
80
80
80
80
80
F0
ENDCHAR
STARTCHAR Ecircumflex
ENCODING 202
SWIDTH 309 0
DWIDTH 6 0
BBX 4 15 1 0
BITMAP
40
60
90
80
80
80
80
F0
80
80
80
80
80
80
F0
ENDCHAR
STARTCHAR Edieresis
ENCODING 203
SWIDTH 309 0
DWIDTH 6 0
BBX 4 16 1 0
BITMAP
60
60
00
F0
80
80
80
80
F0
80
80
80
80
80
80
F0
ENDCHAR
STARTCHAR Igrave
ENCODING 204
SWIDTH 141 0
DWIDTH 3 0
BBX 2 16 0 0
BITMAP
80
40
00
40
40
40
40
40
40
40
40
40
40
40
40
40
ENDCHAR
STARTCHAR Iacute
ENCODING 205
SWIDTH 141 0
DWIDTH 3 0
BBX 2 16 1 0
BITMAP
40
80
00
80
80
80
80
80
80
80
80
80
80
80
80
80
ENDCHAR
STARTCHAR Icircumflex
ENCODING 206
SWIDTH 141 0
DWIDTH 3 0
BBX 3 15 0 0
BITMAP
40
A0
40
40
40
40
40
40
40
40
40
40
40
40
40
ENDCHAR
STARTCHAR Idieresis
ENCODING 207
SWIDTH 141 0
DWIDTH 3 0
BBX 2 16 0 0
BITMAP
C0
C0
00
40
40
40
40
40
40
40
40
40
40
40
40
40
ENDCHAR
STARTCHAR Eth
ENCODING 208
SWIDTH 396 0
DWIDTH 7 0
BBX 6 13 0 0
BITMAP
78
44
44
44
44
44
F4
44
44
44
44
44
78
ENDCHAR
STARTCHAR Ntilde
ENCODING 209
SWIDTH 422 0
DWIDTH 8 0
BBX 6 16 1 0
BITMAP
28
50
00
84
84
84
C4
C4
A4
A4
94
94
94
8C
84
84
ENDCHAR
STARTCHAR Ograve
ENCODING 210
SWIDTH 446 0
DWIDTH 8 0
BBX 6 16 1 0
BITMAP
20
20
00
78
84
84
84
84
84
84
84
84
84
84
84
78
ENDCHAR
STARTCHAR Oacute
ENCODING 211
SWIDTH 446 0
DWIDTH 8 0
BBX 6 16 1 0
BITMAP
10
10
00
78
84
84
84
84
84
84
84
84
84
84
84
78
ENDCHAR
STARTCHAR Ocircumflex
ENCODING 212
SWIDTH 446 0
DWIDTH 8 0
BBX 6 15 1 0
BITMAP
20
30
48
84
84
84
84
84
84
84
84
84
84
84
78
ENDCHAR
STARTCHAR Otilde
ENCODING 213
SWIDTH 446 0
DWIDTH 8 0
BBX 6 16 1 0
BITMAP
28
50
00
78
84
84
84
84
84
84
84
84
84
84
84
78
ENDCHAR
STARTCHAR Odieresis
ENCODING 214
SWIDTH 446 0
DWIDTH 8 0
BBX 6 16 1 0
BITMAP
30
30
00
78
84
84
84
84
84
84
84
84
84
84
84
78
ENDCHAR
STARTCHAR multiply
ENCODING 215
SWIDTH 445 0
DWIDTH 8 0
BBX 6 7 1 1
BITMAP
84
44
28
10
28
44
84
ENDCHAR
STARTCHAR Oslash
ENCODING 216
SWIDTH 446 0
DWIDTH 8 0
BBX 6 13 1 0
BITMAP
7C
84
84
8C
94
94
94
A4
A4
C4
84
84
F8
ENDCHAR
STARTCHAR Ugrave
ENCODING 217
SWIDTH 412 0
DWIDTH 7 0
BBX 6 16 1 0
BITMAP
40
20
00
84
84
84
84
84
84
84
84
84
84
84
84
78
ENDCHAR
STARTCHAR Uacute
ENCODING 218
SWIDTH 412 0
DWIDTH 7 0
BBX 6 16 1 0
BITMAP
10
20
00
84
84
84
84
84
84
84
84
84
84
84
84
78
ENDCHAR
STARTCHAR Ucircumflex
ENCODING 219
SWIDTH 412 0
DWIDTH 7 0
BBX 6 15 1 0
BITMAP
20
50
84
84
84
84
84
84
84
84
84
84
84
84
78
ENDCHAR
STARTCHAR Udieresis
ENCODING 220
SWIDTH 412 0
DWIDTH 7 0
BBX 6 16 1 0
BITMAP
50
50
00
84
84
84
84
84
84
84
84
84
84
84
84
78
ENDCHAR
STARTCHAR Yacute
ENCODING 221
SWIDTH 370 0
DWIDTH 7 0
BBX 7 16 0 0
BITMAP
08
10
00
82
84
44
48
28
28
10
10
10
10
10
10
10
ENDCHAR
STARTCHAR Thorn
ENCODING 222
SWIDTH 341 0
DWIDTH 6 0
BBX 5 13 1 0
BITMAP
80
80
E0
90
88
88
88
88
90
E0
80
80
80
ENDCHAR
STARTCHAR germandbls
ENCODING 223
SWIDTH 327 0
DWIDTH 6 0
BBX 4 13 1 0
BITMAP
E0
90
90
90
90
E0
F0
90
90
90
90
90
E0
ENDCHAR
STARTCHAR agrave
ENCODING 224
SWIDTH 315 0
DWIDTH 6 0
BBX 4 12 1 0
BITMAP
40
40
00
E0
90
10
10
70
90
90
90
F0
ENDCHAR
STARTCHAR aacute
ENCODING 225
SWIDTH 315 0
DWIDTH 6 0
BBX 4 12 1 0
BITMAP
20
40
00
E0
90
10
10
70
90
90
90
F0
ENDCHAR
STARTCHAR acircumflex
ENCODING 226
SWIDTH 315 0
DWIDTH 6 0
BBX 4 12 1 0
BITMAP
40
A0
00
E0
90
10
10
70
90
90
90
F0
ENDCHAR
STARTCHAR atilde
ENCODING 227
SWIDTH 315 0
DWIDTH 6 0
BBX 4 12 1 0
BITMAP
50
A0
00
E0
90
10
10
70
90
90
90
F0
ENDCHAR
STARTCHAR adieresis
ENCODING 228
SWIDTH 315 0
DWIDTH 6 0
BBX 4 12 1 0
BITMAP
A0
A0
00
E0
90
10
10
70
90
90
90
F0
ENDCHAR
STARTCHAR aring
ENCODING 229
SWIDTH 315 0
DWIDTH 6 0
BBX 4 13 1 0
BITMAP
40
A0
40
00
E0
90
10
10
70
90
90
90
F0
ENDCHAR
STARTCHAR ae
ENCODING 230
SWIDTH 450 0
DWIDTH 8 0
BBX 7 9 1 0
BITMAP
EC
B2
12
12
7E
90
90
92
FC
ENDCHAR
STARTCHAR ccedilla
ENCODING 231
SWIDTH 275 0
DWIDTH 5 0
BBX 3 12 1 -3
BITMAP
60
A0
80
80
80
80
80
A0
60
40
20
40
ENDCHAR
STARTCHAR egrave
ENCODING 232
SWIDTH 285 0
DWIDTH 5 0
BBX 4 12 1 0
BITMAP
40
40
00
60
90
90
F0
80
80
80
90
60
ENDCHAR
STARTCHAR eacute
ENCODING 233
SWIDTH 285 0
DWIDTH 5 0
BBX 4 12 1 0
BITMAP
20
40
00
60
90
90
F0
80
80
80
90
60
ENDCHAR
STARTCHAR ecircumflex
ENCODING 234
SWIDTH 285 0
DWIDTH 5 0
BBX 4 12 1 0
BITMAP
40
A0
00
60
90
90
F0
80
80
80
90
60
ENDCHAR
STARTCHAR edieresis
ENCODING 235
SWIDTH 285 0
DWIDTH 5 0
BBX 4 12 1 0
BITMAP
A0
A0
00
60
90
90
F0
80
80
80
90
60
ENDCHAR
STARTCHAR igrave
ENCODING 236
SWIDTH 141 0
DWIDTH 3 0
BBX 2 12 0 0
BITMAP
80
40
00
40
40
40
40
40
40
40
40
40
ENDCHAR
STARTCHAR iacute
ENCODING 237
SWIDTH 141 0
DWIDTH 3 0
BBX 1 12 1 0
BITMAP
80
80
00
80
80
80
80
80
80
80
80
80
ENDCHAR
STARTCHAR icircumflex
ENCODING 238
SWIDTH 141 0
DWIDTH 3 0
BBX 3 12 0 0
BITMAP
40
A0
00
40
40
40
40
40
40
40
40
40
ENDCHAR
STARTCHAR idieresis
ENCODING 239
SWIDTH 141 0
DWIDTH 3 0
BBX 2 12 0 0
BITMAP
C0
C0
00
40
40
40
40
40
40
40
40
40
ENDCHAR
STARTCHAR eth
ENCODING 240
SWIDTH 319 0
DWIDTH 6 0
BBX 4 13 1 0
BITMAP
80
50
E0
20
70
90
90
90
90
90
90
90
60
ENDCHAR
STARTCHAR ntilde
ENCODING 241
SWIDTH 307 0
DWIDTH 6 0
BBX 4 12 1 0
BITMAP
50
A0
00
E0
90
90
90
90
90
90
90
90
ENDCHAR
STARTCHAR ograve
ENCODING 242
SWIDTH 309 0
DWIDTH 6 0
BBX 4 12 1 0
BITMAP
40
40
00
60
90
90
90
90
90
90
90
60
ENDCHAR
STARTCHAR oacute
ENCODING 243
SWIDTH 309 0
DWIDTH 6 0
BBX 4 12 1 0
BITMAP
20
40
00
60
90
90
90
90
90
90
90
60
ENDCHAR
STARTCHAR ocircumflex
ENCODING 244
SWIDTH 309 0
DWIDTH 6 0
BBX 4 12 1 0
BITMAP
40
A0
00
60
90
90
90
90
90
90
90
60
ENDCHAR
STARTCHAR otilde
ENCODING 245
SWIDTH 309 0
DWIDTH 6 0
BBX 4 12 1 0
BITMAP
50
A0
00
60
90
90
90
90
90
90
90
60
ENDCHAR
STARTCHAR odieresis
ENCODING 246
SWIDTH 309 0
DWIDTH 6 0
BBX 4 12 1 0
BITMAP
A0
A0
00
60
90
90
90
90
90
90
90
60
ENDCHAR
STARTCHAR divide
ENCODING 247
SWIDTH 577 0
DWIDTH 10 0
BBX 8 9 1 0
BITMAP
08
08
00
00
FF
00
00
08
08
ENDCHAR
STARTCHAR oslash
ENCODING 248
SWIDTH 309 0
DWIDTH 6 0
BBX 4 9 1 0
BITMAP
70
90
B0
B0
D0
D0
90
90
E0
ENDCHAR
STARTCHAR ugrave
ENCODING 249
SWIDTH 307 0
DWIDTH 6 0
BBX 3 12 1 0
BITMAP
40
40
00
A0
A0
A0
A0
A0
A0
A0
A0
E0
ENDCHAR
STARTCHAR uacute
ENCODING 250
SWIDTH 307 0
DWIDTH 6 0
BBX 3 12 1 0
BITMAP
20
40
00
A0
A0
A0
A0
A0
A0
A0
A0
E0
ENDCHAR
STARTCHAR ucircumflex
ENCODING 251
SWIDTH 307 0
DWIDTH 6 0
BBX 3 12 1 0
BITMAP
40
A0
00
A0
A0
A0
A0
A0
A0
A0
A0
E0
ENDCHAR
STARTCHAR udieresis
ENCODING 252
SWIDTH 307 0
DWIDTH 6 0
BBX 3 12 1 0
BITMAP
A0
A0
00
A0
A0
A0
A0
A0
A0
A0
A0
E0
ENDCHAR
STARTCHAR yacute
ENCODING 253
SWIDTH 285 0
DWIDTH 5 0
BBX 5 16 0 -4
BITMAP
10
20
00
88
88
48
50
50
50
50
20
20
20
20
20
C0
ENDCHAR
STARTCHAR thorn
ENCODING 254
SWIDTH 299 0
DWIDTH 5 0
BBX 5 17 0 -4
BITMAP
40
40
40
40
70
C8
48
48
48
48
48
48
70
40
40
40
40
ENDCHAR
STARTCHAR ydieresis
ENCODING 255
SWIDTH 285 0
DWIDTH 5 0
BBX 5 16 0 -4
BITMAP
50
50
00
88
88
48
50
50
50
50
20
20
20
20
20
C0
ENDCHAR
STARTCHAR dotlessi
ENCODING 305
SWIDTH 141 0
DWIDTH 3 0
BBX 1 9 1 0
BITMAP
80
80
80
80
80
80
80
80
80
ENDCHAR
STARTCHAR OE
ENCODING 338
SWIDTH 505 0
DWIDTH 9 0
BBX 7 13 1 0
BITMAP
7E
90
90
90
90
8E
90
90
90
90
90
90
7E
ENDCHAR
STARTCHAR oe
ENCODING 339
SWIDTH 492 0
DWIDTH 9 0
BBX 7 9 1 0
BITMAP
6E
92
92
9E
90
90
90
92
6E
ENDCHAR
STARTCHAR Wcircumflex
ENCODING 372
SWIDTH 534 0
DWIDTH 10 0
BBX 8 15 1 0
BITMAP
10
28
81
81
81
81
91
99
99
91
91
9A
AA
C6
82
ENDCHAR
STARTCHAR wcircumflex
ENCODING 373
SWIDTH 396 0
DWIDTH 7 0
BBX 7 12 0 0
BITMAP
10
28
00
82
82
92
92
52
54
54
6C
44
ENDCHAR
STARTCHAR Ycircumflex
ENCODING 374
SWIDTH 370 0
DWIDTH 7 0
BBX 7 15 0 0
BITMAP
10
28
82
84
44
48
28
28
10
10
10
10
10
10
10
ENDCHAR
STARTCHAR ycircumflex
ENCODING 375
SWIDTH 285 0
DWIDTH 5 0
BBX 5 16 0 -4
BITMAP
20
50
00
88
88
48
50
50
50
50
20
20
20
20
20
C0
ENDCHAR
STARTCHAR Ydieresis
ENCODING 376
SWIDTH 370 0
DWIDTH 7 0
BBX 7 16 0 0
BITMAP
28
28
00
82
84
44
48
28
28
10
10
10
10
10
10
10
ENDCHAR
STARTCHAR uni0237
ENCODING 567
SWIDTH 141 0
DWIDTH 3 0
BBX 2 13 -1 -4
BITMAP
40
40
40
40
40
40
40
40
40
40
40
40
C0
ENDCHAR
STARTCHAR circumflex
ENCODING 710
SWIDTH 280 0
DWIDTH 5 0
BBX 3 2 1 10
BITMAP
40
A0
ENDCHAR
STARTCHAR ring
ENCODING 730
SWIDTH 238 0
DWIDTH 4 0
BBX 2 3 1 10
BITMAP
40
C0
40
ENDCHAR
STARTCHAR tilde
ENCODING 732
SWIDTH 301 0
DWIDTH 5 0
BBX 3 2 1 10
BITMAP
E0
A0
ENDCHAR
STARTCHAR gravecomb
ENCODING 768
SWIDTH 0 0
DWIDTH 0 0
BBX 2 2 1 10
BITMAP
80
40
ENDCHAR
STARTCHAR acutecomb
ENCODING 769
SWIDTH 0 0
DWIDTH 0 0
BBX 2 2 1 10
BITMAP
40
80
ENDCHAR
STARTCHAR uni0302
ENCODING 770
SWIDTH 0 0
DWIDTH 0 0
BBX 3 2 1 10
BITMAP
40
A0
ENDCHAR
STARTCHAR tildecomb
ENCODING 771
SWIDTH 0 0
DWIDTH 0 0
BBX 3 2 1 10
BITMAP
E0
A0
ENDCHAR
STARTCHAR uni0307
ENCODING 775
SWIDTH 0 0
DWIDTH 0 0
BBX 1 2 1 10
BITMAP
80
80
ENDCHAR
STARTCHAR uni0308
ENCODING 776
SWIDTH 0 0
DWIDTH 0 0
BBX 2 2 1 10
BITMAP
C0
C0
ENDCHAR
STARTCHAR uni030A
ENCODING 778
SWIDTH 0 0
DWIDTH 0 0
BBX 2 3 1 10
BITMAP
40
C0
40
ENDCHAR
STARTCHAR uni0327
ENCODING 807
SWIDTH 0 0
DWIDTH 0 0
BBX 2 3 1 -3
BITMAP
C0
40
C0
ENDCHAR
STARTCHAR Wgrave
ENCODING 7808
SWIDTH 534 0
DWIDTH 10 0
BBX 8 16 1 0
BITMAP
10
10
00
81
81
81
81
91
99
99
91
91
9A
AA
C6
82
ENDCHAR
STARTCHAR wgrave
ENCODING 7809
SWIDTH 396 0
DWIDTH 7 0
BBX 7 12 0 0
BITMAP
20
10
00
82
82
92
92
52
54
54
6C
44
ENDCHAR
STARTCHAR Wacute
ENCODING 7810
SWIDTH 534 0
DWIDTH 10 0
BBX 8 16 1 0
BITMAP
08
08
00
81
81
81
81
91
99
99
91
91
9A
AA
C6
82
ENDCHAR
STARTCHAR wacute
ENCODING 7811
SWIDTH 396 0
DWIDTH 7 0
BBX 7 12 0 0
BITMAP
08
10
00
82
82
92
92
52
54
54
6C
44
ENDCHAR
STARTCHAR Wdieresis
ENCODING 7812
SWIDTH 534 0
DWIDTH 10 0
BBX 8 16 1 0
BITMAP
28
28
00
81
81
81
81
91
99
99
91
91
9A
AA
C6
82
ENDCHAR
STARTCHAR wdieresis
ENCODING 7813
SWIDTH 396 0
DWIDTH 7 0
BBX 7 12 0 0
BITMAP
28
28
00
82
82
92
92
52
54
54
6C
44
ENDCHAR
STARTCHAR uni1E9E
ENCODING 7838
SWIDTH 375 0
DWIDTH 7 0
BBX 5 13 1 0
BITMAP
70
90
88
88
88
B0
E8
88
88
88
88
88
F0
ENDCHAR
STARTCHAR Ygrave
ENCODING 7922
SWIDTH 370 0
DWIDTH 7 0
BBX 7 16 0 0
BITMAP
20
10
00
82
84
44
48
28
28
10
10
10
10
10
10
10
ENDCHAR
STARTCHAR ygrave
ENCODING 7923
SWIDTH 285 0
DWIDTH 5 0
BBX 5 16 0 -4
BITMAP
40
20
00
88
88
48
50
50
50
50
20
20
20
20
20
C0
ENDCHAR
STARTCHAR endash
ENCODING 8211
SWIDTH 425 0
DWIDTH 8 0
BBX 6 1 1 4
BITMAP
FC
ENDCHAR
STARTCHAR emdash
ENCODING 8212
SWIDTH 770 0
DWIDTH 14 0
BBX 12 1 1 4
BITMAP
FFF0
ENDCHAR
STARTCHAR quoteleft
ENCODING 8216
SWIDTH 145 0
DWIDTH 3 0
BBX 1 3 1 10
BITMAP
80
80
80
ENDCHAR
STARTCHAR quoteright
ENCODING 8217
SWIDTH 145 0
DWIDTH 3 0
BBX 1 3 1 8
BITMAP
80
80
80
ENDCHAR
STARTCHAR quotesinglbase
ENCODING 8218
SWIDTH 145 0
DWIDTH 3 0
BBX 2 3 0 -2
BITMAP
40
40
80
ENDCHAR
STARTCHAR quotedblleft
ENCODING 8220
SWIDTH 219 0
DWIDTH 4 0
BBX 2 3 1 10
BITMAP
C0
C0
C0
ENDCHAR
STARTCHAR quotedblright
ENCODING 8221
SWIDTH 219 0
DWIDTH 4 0
BBX 2 3 1 8
BITMAP
C0
C0
C0
ENDCHAR
STARTCHAR quotedblbase
ENCODING 8222
SWIDTH 219 0
DWIDTH 4 0
BBX 3 3 0 -2
BITMAP
60
60
A0
ENDCHAR
STARTCHAR bullet
ENCODING 8226
SWIDTH 355 0
DWIDTH 6 0
BBX 4 4 1 5
BITMAP
70
F0
F0
F0
ENDCHAR
STARTCHAR ellipsis
ENCODING 8230
SWIDTH 651 0
DWIDTH 12 0
BBX 9 2 1 0
BITMAP
8880
8880
ENDCHAR
STARTCHAR guilsinglleft
ENCODING 8249
SWIDTH 263 0
DWIDTH 5 0
BBX 3 7 1 2
BITMAP
20
40
80
80
80
40
20
ENDCHAR
STARTCHAR guilsinglright
ENCODING 8250
SWIDTH 263 0
DWIDTH 5 0
BBX 3 7 1 1
BITMAP
80
80
40
20
20
40
80
ENDCHAR
STARTCHAR fraction
ENCODING 8260
SWIDTH 152 0
DWIDTH 3 0
BBX 7 13 -2 0
BITMAP
02
04
04
08
08
10
10
20
20
40
40
80
80
ENDCHAR
STARTCHAR uni2074
ENCODING 8308
SWIDTH 247 0
DWIDTH 4 0
BBX 3 6 1 7
BITMAP
40
80
C0
C0
E0
40
ENDCHAR
STARTCHAR Euro
ENCODING 8364
SWIDTH 391 0
DWIDTH 7 0
BBX 6 13 0 0
BITMAP
1C
20
40
40
40
F0
40
F0
40
40
40
20
1C
ENDCHAR
STARTCHAR trademark
ENCODING 8482
SWIDTH 506 0
DWIDTH 9 0
BBX 8 6 0 6
BITMAP
F9
4F
4B
4B
4B
49
ENDCHAR
STARTCHAR minus
ENCODING 8722
SWIDTH 557 0
DWIDTH 10 0
BBX 8 1 1 5
BITMAP
FF
ENDCHAR
STARTCHAR uni2215
ENCODING 8725
SWIDTH 259 0
DWIDTH 5 0
BBX 5 13 0 0
BITMAP
08
10
10
10
20
20
20
40
40
40
40
80
80
ENDCHAR
STARTCHAR .notdef
ENCODING -1
SWIDTH 500 0
DWIDTH 9 0
BBX 7 16 1 -3
BITMAP
FE
82
82
82
82
82
82
82
82
82
82
82
82
82
82
FE
ENDCHAR
STARTCHAR NULL
ENCODING -1
SWIDTH 600 0
DWIDTH 11 0
BBX 1 1 0 0
BITMAP
00
ENDCHAR
STARTCHAR acutecomb.case
ENCODING -1
SWIDTH 0 0
DWIDTH 0 0
BBX 1 2 1 14
BITMAP
80
80
ENDCHAR
STARTCHAR uni0302.case
ENCODING -1
SWIDTH 0 0
DWIDTH 0 0
BBX 3 2 1 13
BITMAP
40
A0
ENDCHAR
STARTCHAR uni0308.case
ENCODING -1
SWIDTH 0 0
DWIDTH 0 0
BBX 2 2 1 14
BITMAP
C0
C0
ENDCHAR
STARTCHAR uni0307.case
ENCODING -1
SWIDTH 0 0
DWIDTH 0 0
BBX 1 2 1 14
BITMAP
80
80
ENDCHAR
STARTCHAR gravecomb.case
ENCODING -1
SWIDTH 0 0
DWIDTH 0 0
BBX 1 2 1 14
BITMAP
80
80
ENDCHAR
STARTCHAR uni030A.case
ENCODING -1
SWIDTH 0 0
DWIDTH 0 0
BBX 2 3 1 13
BITMAP
40
C0
40
ENDCHAR
STARTCHAR tildecomb.case
ENCODING -1
SWIDTH 0 0
DWIDTH 0 0
BBX 3 2 1 14
BITMAP
E0
A0
ENDCHAR
ENDFONT
